<svg width="134" height="34" viewBox="0 0 134 34" fill="none" xmlns="http://www.w3.org/2000/svg">
<path d="M15.4508 6.65039V2.40039H2.05078V31.6004H15.4508V27.3504C12.7058 27.3504 10.0732 26.2599 8.13222 24.3189C6.19122 22.3779 5.10078 19.7454 5.10078 17.0004C5.10078 14.2554 6.19122 11.6228 8.13222 9.68184C10.0732 7.74084 12.7058 6.65039 15.4508 6.65039Z" fill="#7C7C7C"/>
<path d="M15.4492 6.65039V27.3504C18.1942 27.3504 20.8268 26.2599 22.7678 24.3189C24.7088 22.3779 25.7992 19.7454 25.7992 17.0004C25.7992 14.2554 24.7088 11.6228 22.7678 9.68184C20.8268 7.74084 18.1942 6.65039 15.4492 6.65039Z" fill="#7C7C7C"/>
<path d="M33.3203 9.25H36.3203V23.7H33.3203V9.25Z" fill="#7C7C7C"/>
<path d="M38.0005 18.7499C38.0005 17.7103 38.3092 16.6941 38.8874 15.8301C39.4656 14.9661 40.2873 14.2932 41.2484 13.8967C42.2095 13.5003 43.2666 13.3981 44.2858 13.6031C45.305 13.8081 46.2404 14.3111 46.9734 15.0483C47.7064 15.7856 48.2041 16.7238 48.4033 17.7442C48.6024 18.7646 48.4942 19.8211 48.0922 20.7799C47.6902 21.7386 47.0127 22.5565 46.1454 23.1297C45.2781 23.703 44.2601 24.0058 43.2205 23.9999C42.531 24.0053 41.8473 23.873 41.2096 23.6106C40.5719 23.3483 39.9929 22.9613 39.5067 22.4724C39.0205 21.9834 38.6369 21.4022 38.3782 20.763C38.1196 20.1238 37.9912 19.4394 38.0005 18.7499ZM45.5205 18.7499C45.5087 18.3017 45.365 17.8669 45.1074 17.5C44.8498 17.133 44.4898 16.8501 44.0722 16.6867C43.6547 16.5233 43.1983 16.4866 42.7601 16.5813C42.3218 16.6759 41.9212 16.8976 41.6083 17.2188C41.2954 17.5399 41.0841 17.9461 41.0009 18.3867C40.9177 18.8273 40.9662 19.2826 41.1404 19.6957C41.3146 20.1088 41.6067 20.4615 41.9803 20.7094C42.3538 20.9574 42.7921 21.0897 43.2405 21.0899C43.5458 21.0959 43.849 21.0388 44.1312 20.9222C44.4134 20.8057 44.6685 20.6322 44.8806 20.4126C45.0927 20.193 45.2572 19.9319 45.3639 19.6459C45.4706 19.3598 45.5171 19.0548 45.5005 18.7499H45.5205Z" fill="#7C7C7C"/>
<path d="M60.3113 13.8001V23.2101C60.3113 26.5301 57.7113 27.9401 55.0813 27.9401C54.1536 28.0162 53.2231 27.8319 52.3946 27.4079C51.566 26.9839 50.8722 26.337 50.3913 25.5401L52.9212 24.0801C53.1262 24.4935 53.4524 24.8345 53.8562 25.0578C54.26 25.2811 54.7222 25.3761 55.1813 25.3301C55.4738 25.3661 55.7705 25.3371 56.0504 25.2451C56.3304 25.153 56.5866 25.0003 56.8006 24.7977C57.0147 24.5951 57.1813 24.3478 57.2886 24.0733C57.3959 23.7989 57.4411 23.5041 57.4212 23.2101V22.3001C57.0721 22.7234 56.6292 23.0594 56.1276 23.2816C55.6259 23.5038 55.0793 23.606 54.5312 23.5801C53.2052 23.5801 51.9335 23.0533 50.9958 22.1156C50.0581 21.178 49.5312 19.9062 49.5312 18.5801C49.5312 17.254 50.0581 15.9823 50.9958 15.0446C51.9335 14.1069 53.2052 13.5801 54.5312 13.5801C55.0793 13.5542 55.6259 13.6564 56.1276 13.8786C56.6292 14.1008 57.0721 14.4368 57.4212 14.8601V13.8601L60.3113 13.8001ZM57.4212 18.5501C57.4411 18.0717 57.3175 17.5982 57.0662 17.1906C56.8149 16.783 56.4476 16.4599 56.0111 16.2628C55.5747 16.0657 55.0894 16.0037 54.6174 16.0847C54.1455 16.1657 53.7085 16.386 53.3628 16.7173C53.0171 17.0486 52.7784 17.4758 52.6774 17.9439C52.5764 18.412 52.6177 18.8995 52.796 19.3439C52.9744 19.7883 53.2816 20.1692 53.6781 20.4376C54.0747 20.706 54.5425 20.8497 55.0213 20.8501C55.3338 20.8726 55.6475 20.8293 55.9421 20.7231C56.2368 20.6168 56.506 20.4499 56.7321 20.2331C56.9583 20.0164 57.1364 19.7546 57.2551 19.4647C57.3738 19.1748 57.4304 18.8632 57.4212 18.5501Z" fill="#7C7C7C"/>
<path d="M62.0003 18.75C62.0003 17.7112 62.3085 16.6958 62.8858 15.8322C63.4631 14.9686 64.2837 14.2957 65.2436 13.8987C66.2035 13.5016 67.2595 13.3982 68.2782 13.6016C69.2969 13.805 70.2323 14.306 70.9662 15.0412C71.7 15.7765 72.1992 16.7129 72.4006 17.7319C72.6021 18.751 72.4968 19.8069 72.0979 20.766C71.699 21.7252 71.0244 22.5444 70.1598 23.1201C69.2951 23.6958 68.2791 24.002 67.2403 24C66.5495 24.0067 65.8643 23.8754 65.2249 23.6138C64.5855 23.3522 64.0046 22.9656 63.5166 22.4766C63.0285 21.9876 62.643 21.4061 62.3826 20.7662C62.1223 20.1263 61.9923 19.4408 62.0003 18.75ZM69.5203 18.75C69.5085 18.3014 69.3645 17.8662 69.1065 17.499C68.8485 17.1319 68.4878 16.849 68.0697 16.6859C67.6516 16.5228 67.1947 16.4867 66.7562 16.5822C66.3177 16.6776 65.9171 16.9004 65.6046 17.2225C65.2921 17.5446 65.0816 17.9518 64.9996 18.393C64.9175 18.8342 64.9674 19.2898 65.1431 19.7027C65.3188 20.1157 65.6125 20.4676 65.9874 20.7144C66.3622 20.9611 66.8015 21.0918 67.2503 21.09C67.5556 21.096 67.8588 21.0389 68.141 20.9223C68.4232 20.8058 68.6783 20.6323 68.8904 20.4127C69.1025 20.1931 69.267 19.932 69.3737 19.646C69.4804 19.3599 69.527 19.0549 69.5104 18.75H69.5203Z" fill="#7C7C7C"/>
<path d="M73.8711 11.1491C73.8711 10.7971 73.9755 10.4529 74.1711 10.1602C74.3667 9.8675 74.6447 9.63936 74.9699 9.50463C75.2952 9.36991 75.6531 9.33466 75.9984 9.40334C76.3436 9.47202 76.6608 9.64155 76.9098 9.89049C77.1587 10.1394 77.3282 10.4566 77.3969 10.8018C77.4656 11.1471 77.4303 11.505 77.2956 11.8303C77.1609 12.1555 76.9327 12.4335 76.64 12.6291C76.3473 12.8247 76.0032 12.9291 75.6511 12.9291C75.1806 12.9239 74.7309 12.7347 74.3982 12.402C74.0655 12.0693 73.8763 11.6196 73.8711 11.1491ZM74.1611 13.7991H77.1611V23.6991H74.1611V13.7991Z" fill="#7C7C7C"/>
<path d="M90.0005 18.7506C90.0341 19.409 89.9372 20.0676 89.7153 20.6884C89.4935 21.3092 89.151 21.88 88.7077 22.3679C88.2643 22.8559 87.7289 23.2513 87.1321 23.5315C86.5354 23.8117 85.8891 23.9711 85.2305 24.0006C84.6716 24.0378 84.1115 23.9483 83.5921 23.7388C83.0726 23.5292 82.6072 23.2051 82.2305 22.7906V27.6806H79.2305V13.8006H82.2305V14.7306C82.6077 14.3173 83.0735 13.9947 83.593 13.7869C84.1125 13.579 84.6723 13.4914 85.2305 13.5306C85.8865 13.5601 86.5302 13.7186 87.1249 13.9969C87.7196 14.2752 88.2537 14.668 88.6966 15.1527C89.1396 15.6374 89.4827 16.2046 89.7064 16.822C89.9301 17.4393 90.0301 18.0946 90.0005 18.7506ZM87.0005 18.7506C86.9887 18.2861 86.84 17.8355 86.5732 17.4552C86.3064 17.0749 85.9332 16.7817 85.5005 16.6126C85.0678 16.4434 84.5948 16.4058 84.1407 16.5043C83.6867 16.6028 83.2719 16.8332 82.9482 17.1665C82.6245 17.4998 82.4064 17.9212 82.3213 18.378C82.2361 18.8347 82.2876 19.3064 82.4694 19.734C82.6512 20.1615 82.9551 20.5259 83.3431 20.7815C83.7311 21.0371 84.1859 21.1724 84.6505 21.1706C84.9687 21.1841 85.2862 21.1302 85.5821 21.0124C85.8781 20.8946 86.1458 20.7156 86.3677 20.4871C86.5896 20.2586 86.7606 19.9857 86.8697 19.6865C86.9788 19.3872 87.0233 19.0683 87.0005 18.7506Z" fill="#7C7C7C"/>
<path d="M99.13 20.7297C99.13 23.0097 97.13 23.9797 95.01 23.9797C94.1453 24.0575 93.2772 23.8742 92.5178 23.4535C91.7584 23.0328 91.1426 22.394 90.75 21.6197L93.33 20.1597C93.4322 20.5165 93.6538 20.8274 93.9578 21.0404C94.2618 21.2534 94.6297 21.3555 95 21.3297C95.71 21.3297 96.07 21.1097 96.07 20.7097C96.07 19.6197 91.2 20.1997 91.2 16.7697C91.2 14.6097 93.02 13.5297 95.08 13.5297C95.863 13.4946 96.641 13.6723 97.3311 14.0438C98.0213 14.4153 98.598 14.9668 99 15.6397L96.42 16.9997C96.306 16.7417 96.1198 16.5223 95.8838 16.3679C95.6477 16.2135 95.372 16.1308 95.09 16.1297C94.57 16.1297 94.26 16.3297 94.26 16.6797C94.26 17.8197 99.13 17.0697 99.13 20.7297Z" fill="#7C7C7C"/>
<path d="M109.999 13.8008V23.7008H106.999V22.7708C106.658 23.1825 106.225 23.5082 105.736 23.7219C105.246 23.9356 104.713 24.0311 104.179 24.0008C102.179 24.0008 100.469 22.5708 100.469 19.9008V13.8008H103.469V19.4508C103.445 19.687 103.473 19.9255 103.551 20.1499C103.629 20.3742 103.754 20.579 103.918 20.7502C104.083 20.9213 104.283 21.0547 104.504 21.1412C104.725 21.2276 104.962 21.265 105.199 21.2508C106.279 21.2508 107.039 20.6108 107.039 19.2508V13.8008H109.999Z" fill="#7C7C7C"/>
<path d="M126.999 17.6197V23.6997H123.999V17.8797C123.999 16.8797 123.529 16.2597 122.579 16.2597C121.629 16.2597 121.029 16.9497 121.029 18.1197V23.6997H118.029V17.8797C118.029 16.8797 117.559 16.2597 116.609 16.2597C115.659 16.2597 115.059 16.9497 115.059 18.1197V23.6997H112.059V13.7997H115.059V14.7097C115.37 14.3077 115.775 13.9893 116.24 13.7833C116.704 13.5773 117.213 13.4901 117.719 13.5297C118.226 13.5032 118.732 13.6092 119.186 13.8371C119.64 14.065 120.027 14.4071 120.309 14.8297C120.639 14.3881 121.075 14.0373 121.577 13.81C122.078 13.5826 122.63 13.4862 123.179 13.5297C125.519 13.5297 126.999 15.1497 126.999 17.6197Z" fill="#7C7C7C"/>
<path d="M129.52 13.7398C130.735 13.7398 131.72 12.7548 131.72 11.5398C131.72 10.3248 130.735 9.33984 129.52 9.33984C128.305 9.33984 127.32 10.3248 127.32 11.5398C127.32 12.7548 128.305 13.7398 129.52 13.7398Z" fill="#7C7C7C"/>
</svg>
