<svg width="132" height="35" viewBox="0 0 132 35" fill="none" xmlns="http://www.w3.org/2000/svg">
<path d="M30.5188 12.25C30.8788 12.25 30.9988 12.38 30.9988 12.73V20.65H35.0688C35.4188 20.65 35.5487 20.78 35.5487 21.13V21.83C35.5487 22.18 35.4188 22.31 35.0688 22.31H29.7087C29.3587 22.31 29.2188 22.18 29.2188 21.83V12.73C29.2188 12.38 29.3587 12.25 29.7087 12.25H30.5188Z" fill="#7C7C7C"/>
<path d="M39.1016 15.7391C39.1016 13.4291 40.5616 12.0391 43.1016 12.0391C45.6416 12.0391 47.1016 13.4291 47.1016 15.7391V18.8191C47.1016 21.1291 45.6316 22.5191 43.1016 22.5191C40.5716 22.5191 39.1016 21.1291 39.1016 18.8191V15.7391ZM45.4216 15.7391C45.4216 14.4391 44.6116 13.7391 43.1516 13.7391C41.6916 13.7391 40.8916 14.4491 40.8916 15.7391V18.8391C40.8916 20.1491 41.6916 20.8391 43.1516 20.8391C44.6116 20.8391 45.4216 20.1191 45.4216 18.8391V15.7391Z" fill="#7C7C7C"/>
<path d="M59.0097 16.8C59.3997 16.8 59.4897 16.93 59.4897 17.28V19.18C59.5003 19.6275 59.4106 20.0718 59.2272 20.4801C59.0437 20.8885 58.7713 21.2506 58.4297 21.54C57.5814 22.2155 56.5118 22.5506 55.4297 22.48C52.8397 22.48 51.4297 21.09 51.4297 18.78V15.68C51.4297 13.4 52.8897 12 55.4297 12C57.4297 12 58.7297 12.79 59.2797 14.37C59.3105 14.4294 59.327 14.4951 59.3279 14.5619C59.3288 14.6288 59.3141 14.695 59.285 14.7551C59.2559 14.8153 59.2131 14.8679 59.1601 14.9087C59.1071 14.9494 59.0453 14.9773 58.9797 14.99L58.1997 15.26C57.8597 15.38 57.7197 15.31 57.5997 14.96C57.434 14.5329 57.1307 14.1731 56.7377 13.9377C56.3447 13.7023 55.8845 13.6045 55.4297 13.66C53.9597 13.66 53.1597 14.37 53.1597 15.66V18.84C53.1597 20.15 53.9697 20.84 55.4297 20.84C56.8897 20.84 57.7897 20.17 57.7897 19.19V18.45H55.6197C55.2597 18.45 55.1297 18.31 55.1297 17.96V17.28C55.1297 16.93 55.2597 16.8 55.6197 16.8H59.0097Z" fill="#7C7C7C"/>
<path d="M63.6211 15.7391C63.6211 13.4291 65.0811 12.0391 67.6211 12.0391C70.1611 12.0391 71.6211 13.4291 71.6211 15.7391V18.8191C71.6211 21.1291 70.1511 22.5191 67.6211 22.5191C65.0911 22.5191 63.6211 21.1291 63.6211 18.8191V15.7391ZM69.9311 15.7391C69.9311 14.4391 69.1211 13.7391 67.6711 13.7391C66.2211 13.7391 65.4011 14.4491 65.4011 15.7391V18.8391C65.4011 20.1491 66.2111 20.8391 67.6711 20.8391C69.1311 20.8391 69.9311 20.1191 69.9311 18.8391V15.7391Z" fill="#7C7C7C"/>
<path d="M76.3281 12.54C76.3281 12.32 76.3981 12.25 76.6181 12.25H77.0781C77.2981 12.25 77.3481 12.32 77.3481 12.54V22.02C77.3481 22.24 77.3481 22.31 77.0781 22.31H76.6181C76.3981 22.31 76.3281 22.24 76.3281 22.02V12.54Z" fill="#7C7C7C"/>
<path d="M86.4614 12.25C87.2942 12.25 88.0928 12.5808 88.6817 13.1697C89.2706 13.7585 89.6014 14.5572 89.6014 15.39C89.6014 16.2228 89.2706 17.0215 88.6817 17.6103C88.0928 18.1992 87.2942 18.53 86.4614 18.53H83.4614V22.02C83.4614 22.24 83.4114 22.31 83.2014 22.31H82.7314C82.5214 22.31 82.4414 22.24 82.4414 22.02V12.54C82.4414 12.32 82.5214 12.25 82.7314 12.25H86.4614ZM86.3714 17.54C86.6577 17.54 86.9412 17.4836 87.2057 17.3741C87.4701 17.2645 87.7105 17.1039 87.9129 16.9015C88.1153 16.6991 88.2759 16.4587 88.3855 16.1943C88.495 15.9298 88.5514 15.6463 88.5514 15.36C88.5514 15.0737 88.495 14.7902 88.3855 14.5257C88.2759 14.2613 88.1153 14.0209 87.9129 13.8185C87.7105 13.6161 87.4701 13.4555 87.2057 13.3459C86.9412 13.2364 86.6577 13.18 86.3714 13.18H83.3714V17.54H86.3714Z" fill="#7C7C7C"/>
<path d="M97.4084 12.0491C98.1805 11.9639 98.9594 12.13 99.6296 12.5227C100.299 12.9155 100.825 13.5139 101.128 14.2291C101.208 14.3891 101.128 14.5191 100.968 14.5991L100.528 14.7991C100.348 14.8691 100.278 14.8591 100.168 14.6691C99.9418 14.1383 99.5523 13.6933 99.0561 13.3985C98.56 13.1037 97.9829 12.9743 97.4084 13.0291C95.7184 13.0291 94.7984 13.6991 94.7984 14.8991C94.7886 15.2658 94.9117 15.6238 95.1452 15.9068C95.3786 16.1898 95.7065 16.3789 96.0684 16.4391C96.6062 16.6145 97.1639 16.722 97.7284 16.7591C98.4117 16.7955 99.0858 16.9337 99.7284 17.1691C100.221 17.325 100.645 17.6456 100.929 18.0772C101.213 18.5088 101.34 19.025 101.288 19.5391C101.288 21.4091 99.9284 22.5391 97.4284 22.5391C96.6084 22.6329 95.781 22.4429 95.0841 22.0007C94.3872 21.5586 93.8628 20.8909 93.5984 20.1091C93.5807 20.0735 93.5712 20.0344 93.5704 19.9946C93.5696 19.9548 93.5777 19.9154 93.5939 19.8791C93.6101 19.8428 93.6342 19.8105 93.6644 19.7846C93.6945 19.7586 93.73 19.7397 93.7684 19.7291L94.2084 19.5691C94.243 19.5549 94.2803 19.5481 94.3177 19.5491C94.3551 19.5501 94.3919 19.5589 94.4258 19.5749C94.4596 19.5909 94.4898 19.6137 94.5143 19.642C94.5389 19.6703 94.5573 19.7033 94.5684 19.7391C94.7921 20.304 95.1899 20.783 95.7041 21.1067C96.2183 21.4303 96.8223 21.5818 97.4284 21.5391C99.3184 21.5391 100.248 20.8791 100.248 19.5391C100.266 19.1869 100.158 18.8398 99.9438 18.5596C99.7296 18.2795 99.4229 18.0844 99.0784 18.0091C98.561 17.8548 98.0274 17.7608 97.4884 17.7291L96.4084 17.5891C96.0704 17.5174 95.7366 17.4272 95.4084 17.3191C95.0842 17.2212 94.782 17.0616 94.5184 16.8491C94.2531 16.6089 94.044 16.3133 93.9057 15.9832C93.7675 15.6531 93.7035 15.2967 93.7184 14.9391C93.7884 13.1891 95.0984 12.0491 97.4084 12.0491Z" fill="#7C7C7C"/>
<path d="M106.678 18.89C106.72 19.5972 107.031 20.2615 107.547 20.7472C108.063 21.2329 108.745 21.5033 109.453 21.5033C110.161 21.5033 110.843 21.2329 111.359 20.7472C111.875 20.2615 112.185 19.5972 112.228 18.89V12.54C112.228 12.32 112.298 12.25 112.518 12.25H112.978C113.198 12.25 113.268 12.32 113.268 12.54V18.88C113.268 21.15 111.928 22.52 109.458 22.52C106.988 22.52 105.648 21.15 105.648 18.88V12.54C105.648 12.32 105.718 12.25 105.928 12.25H106.398C106.608 12.25 106.678 12.32 106.678 12.54V18.89Z" fill="#7C7C7C"/>
<path d="M127.068 12.2498C127.288 12.2498 127.358 12.3198 127.358 12.5398V22.0198C127.358 22.2398 127.288 22.3098 127.068 22.3098H126.648C126.438 22.3098 126.368 22.2398 126.368 22.0198V16.2498C126.368 15.4103 126.425 14.5717 126.538 13.7398H126.478C126.166 14.5005 125.801 15.2389 125.388 15.9498L123.238 19.7398C123.212 19.8056 123.166 19.8618 123.107 19.9011C123.048 19.9403 122.979 19.9608 122.908 19.9598H122.628C122.556 19.9602 122.486 19.9395 122.425 19.9005C122.365 19.8614 122.317 19.8056 122.288 19.7398L120.108 15.9098C119.721 15.2091 119.387 14.4804 119.108 13.7298H119.048C119.15 14.5693 119.204 15.4141 119.208 16.2598V22.0198C119.208 22.2398 119.138 22.3098 118.918 22.3098H118.528C118.308 22.3098 118.238 22.2398 118.238 22.0198V12.5398C118.238 12.3198 118.308 12.2498 118.528 12.2498H118.888C118.97 12.2422 119.053 12.2601 119.124 12.3013C119.196 12.3425 119.253 12.4049 119.288 12.4798L122.788 18.6998L126.268 12.5398C126.378 12.3298 126.438 12.2998 126.658 12.2998L127.068 12.2498Z" fill="#7C7C7C"/>
<path d="M12.73 20.79V28.02C12.73 28.2972 12.6199 28.563 12.4239 28.7589C12.228 28.9549 11.9622 29.065 11.685 29.065C11.4079 29.065 11.1421 28.9549 10.9461 28.7589C10.7501 28.563 10.64 28.2972 10.64 28.02V20.8C10.931 21.0125 11.2798 21.1311 11.64 21.14C12.0326 21.1512 12.4173 21.0277 12.73 20.79ZM21.63 18.7C21.3648 18.7 21.1104 18.8054 20.9229 18.9929C20.7354 19.1804 20.63 19.4348 20.63 19.7V20.96C20.63 21.2372 20.7401 21.503 20.9361 21.6989C21.132 21.8949 21.3978 22.005 21.675 22.005C21.9522 22.005 22.218 21.8949 22.4139 21.6989C22.6099 21.503 22.72 21.2372 22.72 20.96V19.75C22.7278 19.6066 22.7046 19.4632 22.652 19.3296C22.5994 19.196 22.5187 19.0752 22.4152 18.9756C22.3118 18.876 22.1881 18.7998 22.0527 18.7522C21.9172 18.7047 21.773 18.6869 21.63 18.7ZM8.37 23.53C8.01017 23.5192 7.66183 23.4008 7.37 23.19V30.44C7.37 30.7185 7.48062 30.9856 7.67754 31.1825C7.87445 31.3794 8.14152 31.49 8.42 31.49C8.69848 31.49 8.96555 31.3794 9.16246 31.1825C9.35938 30.9856 9.47 30.7185 9.47 30.44V23.24C9.14345 23.4511 8.75816 23.5527 8.37 23.53ZM18.37 16.53C18.2345 16.5232 18.0991 16.5441 17.9719 16.5913C17.8448 16.6385 17.7286 16.7111 17.6303 16.8046C17.5321 16.8982 17.454 17.0107 17.4006 17.1354C17.3473 17.2601 17.3198 17.3944 17.32 17.53V23.1C17.32 23.3785 17.4306 23.6456 17.6275 23.8425C17.8245 24.0394 18.0915 24.15 18.37 24.15C18.6485 24.15 18.9156 24.0394 19.1125 23.8425C19.3094 23.6456 19.42 23.3785 19.42 23.1V17.6C19.428 17.4557 19.4046 17.3114 19.3514 17.177C19.2982 17.0426 19.2166 16.9213 19.112 16.8215C19.0074 16.7217 18.8825 16.6457 18.7458 16.5989C18.6091 16.552 18.4638 16.5353 18.32 16.55L18.37 16.53ZM15.05 18.67C14.6733 18.6674 14.3067 18.5487 14 18.33V25.6C14 25.8785 14.1106 26.1456 14.3075 26.3425C14.5045 26.5394 14.7715 26.65 15.05 26.65C15.3285 26.65 15.5955 26.5394 15.7925 26.3425C15.9894 26.1456 16.1 25.8785 16.1 25.6V18.34C15.7828 18.5763 15.3955 18.6995 15 18.69L15.05 18.67ZM6.1 24.24V3.93C6.09737 3.68243 5.99717 3.44591 5.82117 3.27178C5.64517 3.09765 5.40758 2.99999 5.16 3H4.94C4.69242 2.99999 4.45483 3.09765 4.27883 3.27178C4.10283 3.44591 4.00263 3.68243 4 3.93V24.24C4 24.4893 4.09904 24.7284 4.27532 24.9047C4.4516 25.081 4.6907 25.18 4.94 25.18H5.16C5.40931 25.18 5.6484 25.081 5.82468 24.9047C6.00097 24.7284 6.1 24.4893 6.1 24.24ZM8.48 22.76H8.26C8.0107 22.76 7.7716 22.661 7.59532 22.4847C7.41904 22.3084 7.32 22.0693 7.32 21.82V6.35C7.32264 6.10244 7.42283 5.8659 7.59883 5.69178C7.77483 5.51765 8.01242 5.41999 8.26 5.42H8.48C8.72758 5.41999 8.96517 5.51765 9.14117 5.69178C9.31717 5.8659 9.41737 6.10244 9.42 6.35V21.84C9.42 22.0893 9.32096 22.3284 9.14468 22.5047C8.9684 22.681 8.7293 22.78 8.48 22.78V22.76ZM11.79 20.38H11.56C11.3134 20.38 11.0768 20.282 10.9024 20.1076C10.728 19.9332 10.63 19.6967 10.63 19.45V8.75C10.6287 8.62703 10.6518 8.50502 10.6979 8.39103C10.744 8.27704 10.8123 8.17334 10.8988 8.08592C10.9853 7.9985 11.0883 7.9291 11.2018 7.88174C11.3153 7.83438 11.437 7.80999 11.56 7.81H11.79C12.0376 7.81264 12.2741 7.91283 12.4482 8.08883C12.6224 8.26483 12.72 8.50242 12.72 8.75V19.45C12.72 19.6967 12.622 19.9332 12.4476 20.1076C12.2732 20.282 12.0367 20.38 11.79 20.38ZM15.1 17.93H14.89C14.6424 17.93 14.4048 17.8324 14.2288 17.6582C14.0528 17.4841 13.9526 17.2476 13.95 17V11.24C13.9418 11.1116 13.96 10.9829 14.0036 10.8618C14.0471 10.7408 14.1151 10.6299 14.2032 10.5362C14.2913 10.4424 14.3977 10.3678 14.5159 10.3168C14.634 10.2659 14.7613 10.2397 14.89 10.24H15.11C15.3593 10.24 15.5984 10.339 15.7747 10.5153C15.951 10.6916 16.05 10.9307 16.05 11.18V16.98C16.0513 17.1043 16.028 17.2276 15.9813 17.3428C15.9347 17.458 15.8657 17.5628 15.7782 17.6512C15.6908 17.7395 15.5868 17.8096 15.472 17.8575C15.3573 17.9054 15.2343 17.93 15.11 17.93H15.1ZM18.42 15.78H18.2C17.9507 15.78 17.7116 15.681 17.5353 15.5047C17.359 15.3284 17.26 15.0893 17.26 14.84V13.35C17.2626 13.1024 17.3628 12.8659 17.5388 12.6918C17.7148 12.5176 17.9524 12.42 18.2 12.42H18.42C18.6676 12.42 18.9052 12.5176 19.0812 12.6918C19.2572 12.8659 19.3574 13.1024 19.36 13.35V14.84C19.36 15.0876 19.2624 15.3252 19.0882 15.5012C18.9141 15.6772 18.6776 15.7774 18.43 15.78H18.42Z" fill="#7C7C7C"/>
</svg>
