<svg width="32" height="32" viewBox="0 0 32 32" fill="none" xmlns="http://www.w3.org/2000/svg">
<path d="M30.1233 15.9991C30.1233 8.19776 23.8005 1.875 15.9991 1.875C8.19776 1.875 1.875 8.19776 1.875 15.9991C1.875 22.6198 6.43776 28.1812 12.5895 29.7095V20.3136H9.67638V15.9991H12.5895V14.1398C12.5895 9.33431 14.7633 7.10534 19.486 7.10534C20.3798 7.10534 21.9247 7.2819 22.5591 7.45845V11.3647C22.2281 11.3316 21.6488 11.3095 20.926 11.3095C18.6088 11.3095 17.715 12.1867 17.715 14.4653V15.9991H22.3274L21.5329 20.3136H17.7095V30.0184C24.7053 29.1743 30.1233 23.2212 30.1233 15.9991Z" fill="white"/>
</svg>
