<svg width="48" height="48" viewBox="0 0 48 48" fill="none" xmlns="http://www.w3.org/2000/svg">
<g clip-path="url(#clip0_473_5947)">
<path d="M10.7572 8.111C10.7572 5.18963 13.1323 2.81445 16.0537 2.81445H31.9434C34.8648 2.81445 37.2399 5.18963 37.2399 8.111V13.4076H42.5365C45.4579 13.4076 47.833 15.7827 47.833 18.7041V39.8903C47.833 42.8117 45.4579 45.1869 42.5365 45.1869H5.46061C2.53923 45.1869 0.164062 42.8117 0.164062 39.8903V18.7041C0.164062 15.7827 2.53923 13.4076 5.46061 13.4076H10.7572V8.111ZM22.6744 31.9455C21.2096 31.9455 20.0261 33.1289 20.0261 34.5938V41.2145H27.971V34.5938C27.971 33.1289 26.7875 31.9455 25.3227 31.9455H22.6744ZM10.7572 33.2696V30.6213C10.7572 29.8931 10.1613 29.2972 9.43303 29.2972H6.78475C6.05648 29.2972 5.46061 29.8931 5.46061 30.6213V33.2696C5.46061 33.9979 6.05648 34.5938 6.78475 34.5938H9.43303C10.1613 34.5938 10.7572 33.9979 10.7572 33.2696ZM9.43303 24.0007C10.1613 24.0007 10.7572 23.4048 10.7572 22.6765V20.0282C10.7572 19.3 10.1613 18.7041 9.43303 18.7041H6.78475C6.05648 18.7041 5.46061 19.3 5.46061 20.0282V22.6765C5.46061 23.4048 6.05648 24.0007 6.78475 24.0007H9.43303ZM42.5365 33.2696V30.6213C42.5365 29.8931 41.9406 29.2972 41.2123 29.2972H38.5641C37.8358 29.2972 37.2399 29.8931 37.2399 30.6213V33.2696C37.2399 33.9979 37.8358 34.5938 38.5641 34.5938H41.2123C41.9406 34.5938 42.5365 33.9979 42.5365 33.2696ZM41.2123 24.0007C41.9406 24.0007 42.5365 23.4048 42.5365 22.6765V20.0282C42.5365 19.3 41.9406 18.7041 41.2123 18.7041H38.5641C37.8358 18.7041 37.2399 19.3 37.2399 20.0282V22.6765C37.2399 23.4048 37.8358 24.0007 38.5641 24.0007H41.2123ZM22.0123 11.4213V14.0696H19.3641C18.6358 14.0696 18.0399 14.6655 18.0399 15.3938V16.7179C18.0399 17.4462 18.6358 18.042 19.3641 18.042H22.0123V20.6903C22.0123 21.4186 22.6082 22.0145 23.3365 22.0145H24.6606C25.3889 22.0145 25.9848 21.4186 25.9848 20.6903V18.042H28.633C29.3613 18.042 29.9572 17.4462 29.9572 16.7179V15.3938C29.9572 14.6655 29.3613 14.0696 28.633 14.0696H25.9848V11.4213C25.9848 10.6931 25.3889 10.0972 24.6606 10.0972H23.3365C22.6082 10.0972 22.0123 10.6931 22.0123 11.4213Z" fill="white"/>
</g>
<defs>
<clipPath id="clip0_473_5947">
<rect width="48" height="48" fill="white"/>
</clipPath>
</defs>
</svg>
