<svg width="48" height="48" viewBox="0 0 48 48" fill="none" xmlns="http://www.w3.org/2000/svg">
<path d="M4.13672 4.80066C4.13672 3.69997 5.02224 2.81445 6.12293 2.81445H41.8746C42.9753 2.81445 43.8609 3.69997 43.8609 4.80066C43.8609 5.90135 42.9753 6.78687 41.8746 6.78687H41.2126V41.2145H41.8746C42.9753 41.2145 43.8609 42.1 43.8609 43.2007C43.8609 44.3013 42.9753 45.1869 41.8746 45.1869H6.12293C5.02224 45.1869 4.13672 44.3013 4.13672 43.2007C4.13672 42.1 5.02224 41.2145 6.12293 41.2145H6.78499V6.78687H6.12293C5.02224 6.78687 4.13672 5.90135 4.13672 4.80066ZM21.3505 12.0834V14.7317C21.3505 15.46 21.9464 16.0558 22.6747 16.0558H25.3229C26.0512 16.0558 26.6471 15.46 26.6471 14.7317V12.0834C26.6471 11.3551 26.0512 10.7593 25.3229 10.7593H22.6747C21.9464 10.7593 21.3505 11.3551 21.3505 12.0834ZM13.4057 10.7593C12.6774 10.7593 12.0815 11.3551 12.0815 12.0834V14.7317C12.0815 15.46 12.6774 16.0558 13.4057 16.0558H16.054C16.7822 16.0558 17.3781 15.46 17.3781 14.7317V12.0834C17.3781 11.3551 16.7822 10.7593 16.054 10.7593H13.4057ZM21.3505 20.0282V22.6765C21.3505 23.4048 21.9464 24.0007 22.6747 24.0007H25.3229C26.0512 24.0007 26.6471 23.4048 26.6471 22.6765V20.0282C26.6471 19.3 26.0512 18.7041 25.3229 18.7041H22.6747C21.9464 18.7041 21.3505 19.3 21.3505 20.0282ZM31.9436 10.7593C31.2153 10.7593 30.6195 11.3551 30.6195 12.0834V14.7317C30.6195 15.46 31.2153 16.0558 31.9436 16.0558H34.5919C35.3202 16.0558 35.916 15.46 35.916 14.7317V12.0834C35.916 11.3551 35.3202 10.7593 34.5919 10.7593H31.9436ZM12.0815 20.0282V22.6765C12.0815 23.4048 12.6774 24.0007 13.4057 24.0007H16.054C16.7822 24.0007 17.3781 23.4048 17.3781 22.6765V20.0282C17.3781 19.3 16.7822 18.7041 16.054 18.7041H13.4057C12.6774 18.7041 12.0815 19.3 12.0815 20.0282ZM31.9436 18.7041C31.2153 18.7041 30.6195 19.3 30.6195 20.0282V22.6765C30.6195 23.4048 31.2153 24.0007 31.9436 24.0007H34.5919C35.3202 24.0007 35.916 23.4048 35.916 22.6765V20.0282C35.916 19.3 35.3202 18.7041 34.5919 18.7041H31.9436ZM26.6471 34.5938H30.2719C31.0912 34.5938 31.7202 33.8489 31.4305 33.0876C30.2884 30.1 27.3919 27.9731 24.0071 27.9731C20.6222 27.9731 17.7257 30.1 16.5836 33.0876C16.294 33.8489 16.9229 34.5938 17.7422 34.5938H21.3671V41.2145H26.6636V34.5938H26.6471Z" fill="white"/>
</svg>
