<svg width="48" height="48" viewBox="0 0 48 48" fill="none" xmlns="http://www.w3.org/2000/svg">
<path d="M25.8028 3.52595C24.7849 2.5825 23.2125 2.5825 22.2028 3.52595L3.66489 20.7397C2.8704 21.4846 2.60558 22.6349 3.00282 23.6446C3.40006 24.6542 4.36833 25.3246 5.46075 25.3246H6.78489V39.8901C6.78489 42.8115 9.16006 45.1866 12.0814 45.1866H35.9159C38.8373 45.1866 41.2125 42.8115 41.2125 39.8901V25.3246H42.5366C43.629 25.3246 44.6056 24.6542 45.0028 23.6446C45.4001 22.6349 45.1352 21.4763 44.3407 20.7397L25.8028 3.52595ZM22.6745 29.297H25.3228C27.5159 29.297 29.2952 31.0763 29.2952 33.2694V41.2142H18.7021V33.2694C18.7021 31.0763 20.4814 29.297 22.6745 29.297Z" fill="white"/>
</svg>
