<svg width="40" height="40" viewBox="0 0 40 40" fill="none" xmlns="http://www.w3.org/2000/svg">
<path d="M22.5 16.875V27.5C22.5 30.2578 24.7422 32.5 27.5 32.5H32.5C35.2578 32.5 37.5 30.2578 37.5 27.5V22.5C37.5 19.7422 35.2578 17.5 32.5 17.5H27.5V16.875C27.5 14.4609 29.4609 12.5 31.875 12.5H32.5C33.8828 12.5 35 11.3828 35 10C35 8.61719 33.8828 7.5 32.5 7.5H31.875C26.6953 7.5 22.5 11.6953 22.5 16.875Z" fill="url(#paint0_linear_471_7332)"/>
<path d="M11.875 7.5C6.69531 7.5 2.5 11.6953 2.5 16.875V27.5C2.5 30.2578 4.74219 32.5 7.5 32.5H12.5C15.2578 32.5 17.5 30.2578 17.5 27.5V22.5C17.5 19.7422 15.2578 17.5 12.5 17.5H7.5V16.875C7.5 14.4609 9.46094 12.5 11.875 12.5H12.5C13.8828 12.5 15 11.3828 15 10C15 8.61719 13.8828 7.5 12.5 7.5H11.875Z" fill="url(#paint1_linear_471_7332)"/>
<defs>
<linearGradient id="paint0_linear_471_7332" x1="30" y1="7.5" x2="30" y2="32.5" gradientUnits="userSpaceOnUse">
<stop stop-color="#34B5E5"/>
<stop offset="1" stop-color="#016CB5"/>
</linearGradient>
<linearGradient id="paint1_linear_471_7332" x1="10" y1="7.5" x2="10" y2="32.5" gradientUnits="userSpaceOnUse">
<stop stop-color="#34B5E5"/>
<stop offset="1" stop-color="#016CB5"/>
</linearGradient>
</defs>
</svg>
