<svg width="32" height="32" viewBox="0 0 32 32" fill="none" xmlns="http://www.w3.org/2000/svg">
<path d="M16.0167 9.65431C15.1835 9.65213 14.358 9.8141 13.5874 10.1309C12.8168 10.4478 12.1161 10.9133 11.5254 11.501C10.3324 12.6877 9.65972 14.2998 9.65533 15.9826C9.65094 17.6653 10.3152 19.2809 11.502 20.4739C12.6888 21.6669 14.3009 22.3396 15.9836 22.344C17.6664 22.3484 19.2819 21.6841 20.4749 20.4973C21.6679 19.3105 22.3406 17.6984 22.345 16.0157C22.3494 14.3329 21.6851 12.7174 20.4983 11.5244C19.3116 10.3314 17.6995 9.6587 16.0167 9.65431ZM15.9836 11.8833C16.5241 11.8811 17.0598 11.9854 17.5599 12.1902C18.0601 12.3951 18.5151 12.6964 18.8988 13.0771C19.2825 13.4577 19.5875 13.9102 19.7964 14.4088C20.0052 14.9073 20.1139 15.4421 20.116 15.9826C20.1182 16.5231 20.0139 17.0587 19.8091 17.5589C19.6042 18.0591 19.3029 18.5141 18.9222 18.8978C18.5416 19.2815 18.0891 19.5865 17.5905 19.7954C17.092 20.0042 16.5572 20.1128 16.0167 20.115C15.4762 20.1172 14.9406 20.0129 14.4404 19.808C13.9402 19.6032 13.4852 19.3018 13.1015 18.9212C12.7178 18.5405 12.4128 18.088 12.2039 17.5895C11.9951 17.091 11.8865 16.5562 11.8843 16.0157C11.8821 15.4752 11.9864 14.9395 12.1913 14.4394C12.3961 13.9392 12.6974 13.4842 13.0781 13.1005C13.4588 12.7168 13.9113 12.4118 14.4098 12.2029C14.9083 11.9941 15.4431 11.8854 15.9836 11.8833ZM21.1367 9.395C21.1367 9.00284 21.2925 8.62675 21.5698 8.34945C21.8471 8.07216 22.2232 7.91638 22.6153 7.91638C23.0075 7.91638 23.3836 8.07216 23.6609 8.34945C23.9382 8.62675 24.094 9.00284 24.094 9.395C24.094 9.78715 23.9382 10.1632 23.6609 10.4405C23.3836 10.7178 23.0075 10.8736 22.6153 10.8736C22.2232 10.8736 21.8471 10.7178 21.5698 10.4405C21.2925 10.1632 21.1367 9.78715 21.1367 9.395ZM28.2926 10.8957C28.1988 8.915 27.7464 7.16051 26.2953 5.715C24.8498 4.26948 23.0953 3.81707 21.1146 3.71776C19.0733 3.60189 12.9546 3.60189 10.9133 3.71776C8.93809 3.81155 7.18361 4.26396 5.73258 5.70948C4.28154 7.155 3.83464 8.90948 3.73533 10.8902C3.61947 12.9315 3.61947 19.0502 3.73533 21.0915C3.82913 23.0722 4.28154 24.8267 5.73258 26.2722C7.18361 27.7178 8.93258 28.1702 10.9133 28.2695C12.9546 28.3853 19.0733 28.3853 21.1146 28.2695C23.0953 28.1757 24.8498 27.7233 26.2953 26.2722C27.7409 24.8267 28.1933 23.0722 28.2926 21.0915C28.4084 19.0502 28.4084 12.9371 28.2926 10.8957ZM25.6553 23.2819C25.225 24.3633 24.3919 25.1964 23.305 25.6322C21.6774 26.2778 17.8153 26.1288 16.0167 26.1288C14.2181 26.1288 10.3505 26.2722 8.72844 25.6322C7.64706 25.2019 6.81395 24.3688 6.37809 23.2819C5.73258 21.6543 5.88154 17.7922 5.88154 15.9936C5.88154 14.195 5.73809 10.3274 6.37809 8.70534C6.80844 7.62396 7.64154 6.79086 8.72844 6.355C10.356 5.70948 14.2181 5.85845 16.0167 5.85845C17.8153 5.85845 21.6829 5.715 23.305 6.355C24.3864 6.78534 25.2195 7.61845 25.6553 8.70534C26.3009 10.3329 26.1519 14.195 26.1519 15.9936C26.1519 17.7922 26.3009 21.6598 25.6553 23.2819Z" fill="white"/>
</svg>
