<svg width="32" height="32" viewBox="0 0 32 32" fill="none" xmlns="http://www.w3.org/2000/svg">
<path d="M9.17442 26.5922H4.0489V10.0902H9.17442V26.5922ZM6.6089 7.83914C4.97028 7.83914 3.64062 6.4819 3.64062 4.84328C3.64062 4.05431 3.95511 3.30397 4.51235 2.74672C5.06959 2.18948 5.82545 1.875 6.6089 1.875C7.39235 1.875 8.14821 2.18948 8.70545 2.74672C9.26269 3.30397 9.57718 4.05983 9.57718 4.84328C9.57718 6.4819 8.24752 7.83914 6.6089 7.83914ZM28.3523 26.5922H23.2379V18.5591C23.2379 16.6447 23.1992 14.1895 20.573 14.1895C17.9082 14.1895 17.4999 16.2695 17.4999 18.4212V26.5922H12.3799V10.0902H17.2958V12.3412H17.3675C18.0517 11.0447 19.7234 9.67638 22.2172 9.67638C27.4034 9.67638 28.3579 13.0916 28.3579 17.5274V26.5922H28.3523Z" fill="white"/>
</svg>
