<svg width="48" height="48" viewBox="0 0 48 48" fill="none" xmlns="http://www.w3.org/2000/svg">
<g clip-path="url(#clip0_473_5945)">
<path d="M14.2082 21.6422C17.0468 23.1898 19.5461 25.2919 21.5572 27.8077C22.4758 28.9581 23.2951 30.1994 23.9903 31.5153C24.6937 30.1994 25.5048 28.9663 26.4234 27.8077C28.4344 25.2836 30.9337 23.1815 33.7723 21.6422C37.2234 19.7636 41.171 18.7043 45.3337 18.7043H46.153C47.0717 18.7043 47.8165 19.4491 47.8165 20.3677C47.8165 32.616 37.8937 42.5388 25.6454 42.5388H22.3185C10.0868 42.5388 0.164062 32.616 0.164062 20.3677C0.164062 19.4491 0.90889 18.7043 1.82751 18.7043H2.64682C6.81786 18.7043 10.7654 19.7636 14.2082 21.6422ZM25.3144 5.95944C26.713 7.2753 30.3958 11.2063 32.6799 17.736C29.3613 19.4077 26.4068 21.725 23.9985 24.5305C21.582 21.725 18.6358 19.416 15.3172 17.736C17.6013 11.2063 21.2923 7.2753 22.6827 5.95944C23.0385 5.62013 23.5103 5.46289 23.9985 5.46289C24.4868 5.46289 24.9585 5.62841 25.3144 5.95944Z" fill="white"/>
</g>
<defs>
<clipPath id="clip0_473_5945">
<rect width="48" height="48" fill="white"/>
</clipPath>
</defs>
</svg>
