<svg width="32" height="32" viewBox="0 0 32 32" fill="none" xmlns="http://www.w3.org/2000/svg">
<path d="M28.3854 13.4557C25.9578 13.4612 23.5854 12.7053 21.6103 11.2929V21.1522C21.6103 22.9784 21.053 24.7605 20.0103 26.2612C18.9675 27.7619 17.4944 28.9095 15.784 29.5495C14.0737 30.1895 12.2089 30.2943 10.4378 29.8419C8.6668 29.3895 7.07784 28.4129 5.87508 27.0391C4.67232 25.6653 3.92749 23.9495 3.72336 22.1343C3.51922 20.3191 3.88336 18.4874 4.74956 16.8819C5.61577 15.2764 6.95646 13.9743 8.58956 13.1467C10.2227 12.3191 12.0599 12.0157 13.8696 12.264V17.224C13.042 16.9647 12.1537 16.9702 11.3316 17.246C10.5096 17.5219 9.79232 18.0516 9.29025 18.7522C8.78818 19.4529 8.51784 20.3026 8.52336 21.1743C8.52887 22.046 8.81025 22.8847 9.32336 23.5853C9.83646 24.286 10.5592 24.8047 11.3868 25.0695C12.2144 25.3343 13.1027 25.3343 13.9247 25.064C14.7468 24.7936 15.4696 24.2695 15.9771 23.5688C16.4847 22.8681 16.7606 22.0184 16.7606 21.1522V1.875H21.6158C21.6103 2.28328 21.6489 2.69707 21.7206 3.09983C21.8916 3.99914 22.2392 4.85983 22.7523 5.62121C23.2654 6.38259 23.9275 7.03362 24.6944 7.53017C25.7923 8.25293 27.0778 8.63914 28.3909 8.63914V13.4612L28.3854 13.4557Z" fill="white"/>
</svg>
