<svg width="32" height="32" viewBox="0 0 32 32" fill="none" xmlns="http://www.w3.org/2000/svg">
<path d="M30.4382 8.72211C30.0961 7.41453 29.0699 6.38832 27.7734 6.04073C25.4285 5.40625 16.0051 5.40625 16.0051 5.40625C16.0051 5.40625 6.58164 5.40625 4.23129 6.04073C2.93474 6.38832 1.91405 7.41453 1.56647 8.72211C0.9375 11.089 0.9375 16.0214 0.9375 16.0214C0.9375 16.0214 0.9375 20.9538 1.56647 23.3207C1.91405 24.6228 2.93474 25.6104 4.23129 25.958C6.58164 26.5925 16.0051 26.5925 16.0051 26.5925C16.0051 26.5925 25.4285 26.5925 27.7789 25.958C29.0754 25.6104 30.0961 24.6228 30.4437 23.3207C31.0727 20.9538 31.0727 16.0214 31.0727 16.0214C31.0727 16.0214 31.0727 11.089 30.4437 8.72211H30.4382ZM12.9209 20.5014V11.5414L20.7941 16.0214L12.9209 20.5014Z" fill="white"/>
</svg>
